frame:0    pts:285     pts_time:11.875
lavfi.scene_score=0.658854
frame:1    pts:378     pts_time:15.75
lavfi.scene_score=0.568919
frame:2    pts:553     pts_time:23.0417
lavfi.scene_score=0.741007
frame:3    pts:1145    pts_time:47.7083
lavfi.scene_score=0.563398
frame:4    pts:1346    pts_time:56.0833
lavfi.scene_score=0.616634
frame:5    pts:1456    pts_time:60.6667
lavfi.scene_score=0.470161
frame:6    pts:1531    pts_time:63.7917
lavfi.scene_score=0.641184
frame:7    pts:1666    pts_time:69.4167
lavfi.scene_score=0.578775
frame:8    pts:1711    pts_time:71.2917
lavfi.scene_score=0.790629
frame:9    pts:1763    pts_time:73.4583
lavfi.scene_score=0.584755
frame:10   pts:1813    pts_time:75.5417
lavfi.scene_score=0.512399
frame:11   pts:1919    pts_time:79.9583
lavfi.scene_score=0.643171
frame:12   pts:2154    pts_time:89.75
lavfi.scene_score=0.640591
frame:13   pts:2194    pts_time:91.4167
lavfi.scene_score=0.636087
frame:14   pts:2394    pts_time:99.75
lavfi.scene_score=0.790872
frame:15   pts:2494    pts_time:103.917
lavfi.scene_score=0.646089
frame:16   pts:2704    pts_time:112.667
lavfi.scene_score=0.350046
frame:17   pts:2831    pts_time:117.958
lavfi.scene_score=0.577748
frame:18   pts:2901    pts_time:120.875
lavfi.scene_score=0.556961
frame:19   pts:2963    pts_time:123.458
lavfi.scene_score=0.427664
frame:20   pts:3045    pts_time:126.875
lavfi.scene_score=0.463535
frame:21   pts:3513    pts_time:146.375
lavfi.scene_score=0.438684
frame:22   pts:3578    pts_time:149.083
lavfi.scene_score=0.458433
frame:23   pts:3744    pts_time:156
lavfi.scene_score=0.458266
frame:24   pts:3860    pts_time:160.833
lavfi.scene_score=0.461007
frame:25   pts:3895    pts_time:162.292
lavfi.scene_score=0.539955
frame:26   pts:3919    pts_time:163.292
lavfi.scene_score=0.577390
frame:27   pts:3989    pts_time:166.208
lavfi.scene_score=0.583277
frame:28   pts:4032    pts_time:168
lavfi.scene_score=0.608914
frame:29   pts:4069    pts_time:169.542
lavfi.scene_score=0.592115
frame:30   pts:4227    pts_time:176.125
lavfi.scene_score=0.558244
frame:31   pts:4266    pts_time:177.75
lavfi.scene_score=0.474351
frame:32   pts:4332    pts_time:180.5
lavfi.scene_score=0.467030
frame:33   pts:4463    pts_time:185.958
lavfi.scene_score=0.549085
frame:34   pts:4544    pts_time:189.333
lavfi.scene_score=0.491041
frame:35   pts:4612    pts_time:192.167
lavfi.scene_score=0.503367
frame:36   pts:4672    pts_time:194.667
lavfi.scene_score=0.477804
frame:37   pts:4697    pts_time:195.708
lavfi.scene_score=0.501641
frame:38   pts:4726    pts_time:196.917
lavfi.scene_score=0.626879
frame:39   pts:4796    pts_time:199.833
lavfi.scene_score=0.585212
frame:40   pts:4900    pts_time:204.167
lavfi.scene_score=0.623426
frame:41   pts:4942    pts_time:205.917
lavfi.scene_score=0.565059
frame:42   pts:4979    pts_time:207.458
lavfi.scene_score=0.551841
frame:43   pts:5013    pts_time:208.875
lavfi.scene_score=0.540652
frame:44   pts:5079    pts_time:211.625
lavfi.scene_score=0.457927
frame:45   pts:5131    pts_time:213.792
lavfi.scene_score=0.366596
frame:46   pts:5292    pts_time:220.5
lavfi.scene_score=0.542165
frame:47   pts:5371    pts_time:223.792
lavfi.scene_score=0.586144
frame:48   pts:5430    pts_time:226.25
lavfi.scene_score=0.639778
frame:49   pts:5518    pts_time:229.917
lavfi.scene_score=0.552669
frame:50   pts:5579    pts_time:232.458
lavfi.scene_score=0.539389
frame:51   pts:5809    pts_time:242.042
lavfi.scene_score=0.553375
frame:52   pts:5844    pts_time:243.5
lavfi.scene_score=0.645267
frame:53   pts:6018    pts_time:250.75
lavfi.scene_score=0.462094
frame:54   pts:6048    pts_time:252
lavfi.scene_score=0.559223
frame:55   pts:6088    pts_time:253.667
lavfi.scene_score=0.437800
frame:56   pts:6128    pts_time:255.333
lavfi.scene_score=0.376342
frame:57   pts:6168    pts_time:257
lavfi.scene_score=0.586521
frame:58   pts:6208    pts_time:258.667
lavfi.scene_score=0.532003
frame:59   pts:6228    pts_time:259.5
lavfi.scene_score=0.413071
frame:60   pts:6268    pts_time:261.167
lavfi.scene_score=0.467848
frame:61   pts:6308    pts_time:262.833
lavfi.scene_score=0.384642
frame:62   pts:6348    pts_time:264.5
lavfi.scene_score=0.461619
frame:63   pts:6388    pts_time:266.167
lavfi.scene_score=0.380895
frame:64   pts:6488    pts_time:270.333
lavfi.scene_score=0.460169
frame:65   pts:6623    pts_time:275.958
lavfi.scene_score=0.406687
frame:66   pts:6670    pts_time:277.917
lavfi.scene_score=0.393988
frame:67   pts:6713    pts_time:279.708
lavfi.scene_score=0.495762
frame:68   pts:6753    pts_time:281.375
lavfi.scene_score=0.562584
frame:69   pts:6833    pts_time:284.708
lavfi.scene_score=0.604691
frame:70   pts:7013    pts_time:292.208
lavfi.scene_score=0.773649
frame:71   pts:7093    pts_time:295.542
lavfi.scene_score=0.515715
frame:72   pts:7131    pts_time:297.125
lavfi.scene_score=0.526804
frame:73   pts:7325    pts_time:305.208
lavfi.scene_score=0.862751
frame:74   pts:7500    pts_time:312.5
lavfi.scene_score=0.461495
frame:75   pts:7546    pts_time:314.417
lavfi.scene_score=0.453860
frame:76   pts:7613    pts_time:317.208
lavfi.scene_score=0.443859
frame:77   pts:7661    pts_time:319.208
lavfi.scene_score=0.404414
frame:78   pts:7732    pts_time:322.167
lavfi.scene_score=0.544533
frame:79   pts:7769    pts_time:323.708
lavfi.scene_score=0.410923
frame:80   pts:8024    pts_time:334.333
lavfi.scene_score=0.767699
frame:81   pts:8085    pts_time:336.875
lavfi.scene_score=0.578443
frame:82   pts:8091    pts_time:337.125
lavfi.scene_score=0.686152
frame:83   pts:8154    pts_time:339.75
lavfi.scene_score=0.755048
frame:84   pts:8945    pts_time:372.708
lavfi.scene_score=0.876717
frame:85   pts:9009    pts_time:375.375
lavfi.scene_score=0.880613
frame:86   pts:9080    pts_time:378.333
lavfi.scene_score=0.375748
frame:87   pts:9148    pts_time:381.167
lavfi.scene_score=0.647449
frame:88   pts:9379    pts_time:390.792
lavfi.scene_score=0.532549
frame:89   pts:9420    pts_time:392.5
lavfi.scene_score=0.993552
frame:90   pts:9468    pts_time:394.5
lavfi.scene_score=0.898498
frame:91   pts:9507    pts_time:396.125
lavfi.scene_score=0.533266
frame:92   pts:9575    pts_time:398.958
lavfi.scene_score=0.819592
frame:93   pts:9584    pts_time:399.333
lavfi.scene_score=0.876395
frame:94   pts:9593    pts_time:399.708
lavfi.scene_score=0.321268
frame:95   pts:9719    pts_time:404.958
lavfi.scene_score=0.728857
frame:96   pts:9795    pts_time:408.125
lavfi.scene_score=0.788842
frame:97   pts:9850    pts_time:410.417
lavfi.scene_score=0.592717
frame:98   pts:9891    pts_time:412.125
lavfi.scene_score=0.662269
frame:99   pts:9987    pts_time:416.125
lavfi.scene_score=0.676750
frame:100  pts:10016   pts_time:417.333
lavfi.scene_score=0.543994
frame:101  pts:10081   pts_time:420.042
lavfi.scene_score=0.473769
frame:102  pts:10097   pts_time:420.708
lavfi.scene_score=0.640447
frame:103  pts:10125   pts_time:421.875
lavfi.scene_score=0.796900
frame:104  pts:10184   pts_time:424.333
lavfi.scene_score=0.707769
frame:105  pts:10234   pts_time:426.417
lavfi.scene_score=0.952317
frame:106  pts:10260   pts_time:427.5
lavfi.scene_score=0.251771
frame:107  pts:10303   pts_time:429.292
lavfi.scene_score=0.775013
frame:108  pts:10339   pts_time:430.792
lavfi.scene_score=0.663279
frame:109  pts:10409   pts_time:433.708
lavfi.scene_score=0.690118
frame:110  pts:10453   pts_time:435.542
lavfi.scene_score=0.572552
frame:111  pts:10574   pts_time:440.583
lavfi.scene_score=0.351040
frame:112  pts:10612   pts_time:442.167
lavfi.scene_score=0.558219
frame:113  pts:10637   pts_time:443.208
lavfi.scene_score=0.699882
frame:114  pts:10842   pts_time:451.75
lavfi.scene_score=0.433776
frame:115  pts:10999   pts_time:458.292
lavfi.scene_score=0.404907
frame:116  pts:11312   pts_time:471.333
lavfi.scene_score=0.524625
frame:117  pts:11349   pts_time:472.875
lavfi.scene_score=0.457781
frame:118  pts:11524   pts_time:480.167
lavfi.scene_score=0.498569
frame:119  pts:11560   pts_time:481.667
lavfi.scene_score=0.750785
frame:120  pts:11612   pts_time:483.833
lavfi.scene_score=0.410843
frame:121  pts:11671   pts_time:486.292
lavfi.scene_score=0.488669
frame:122  pts:13942   pts_time:580.917
lavfi.scene_score=1.000000
frame:123  pts:14314   pts_time:596.417
lavfi.scene_score=1.000000
